<?xml version="1.0" encoding="UTF-8"?>
<svg width="1014px" height="503px" viewBox="0 0 1014 503" version="1.1" xmlns="http://www.w3.org/2000/svg" xmlns:xlink="http://www.w3.org/1999/xlink">
    <!-- Generator: Sketch 52.6 (67491) - http://www.bohemiancoding.com/sketch -->
    <title>dark-mode</title>
    <desc>Created with Sketch.</desc>
    <g id="Page-1" stroke="none" stroke-width="1" fill="none" fill-rule="evenodd">
        <g id="dark-mode">
            <path d="M1013.94928,-1.42108547e-13 L-3e-05,-1.42108547e-13 C0.772699745,235.389103 0.772699745,403.05577 -3e-05,503 L1013.94928,503 C1012.51552,317.556073 1012.51552,149.889407 1013.94928,-1.42108547e-13 Z" id="Path" fill="#2F2E41"></path>
            <circle id="Oval" fill="#F2F2F2" cx="480.78756" cy="52.54395" r="5"></circle>
            <circle id="Oval" fill="#F2F2F2" cx="323.78756" cy="217.54395" r="2"></circle>
            <circle id="Oval" fill="#F2F2F2" cx="618.78756" cy="311.54395" r="2"></circle>
            <circle id="Oval" fill="#F2F2F2" cx="97.78756" cy="286.54395" r="2"></circle>
            <circle id="Oval" fill="#F2F2F2" cx="877.78756" cy="215.54395" r="2"></circle>
            <circle id="Oval" fill="#F2F2F2" cx="235.78756" cy="236.54395" r="2"></circle>
            <circle id="Oval" fill="#F2F2F2" cx="563.78756" cy="196.54395" r="2"></circle>
            <circle id="Oval" fill="#F2F2F2" cx="629.78756" cy="52.54395" r="2"></circle>
            <rect id="Rectangle" fill="#F2F2F2" x="211.78756" y="288.54395" width="2" height="1"></rect>
            <rect id="Rectangle" fill="#F2F2F2" x="270.78756" y="135.54395" width="2" height="1"></rect>
            <rect id="Rectangle" fill="#F2F2F2" x="414.78756" y="249.54395" width="2" height="1"></rect>
            <rect id="Rectangle" fill="#F2F2F2" x="796.78756" y="293.54395" width="2" height="1"></rect>
            <rect id="Rectangle" fill="#F2F2F2" x="677.78756" y="140.54395" width="2" height="1"></rect>
            <rect id="Rectangle" fill="#3F3D56" x="225.08928" y="363.68007" width="3.51907" height="139.0033"></rect>
            <path d="M261.08539,339.39444 C261.30939,388.00044 227.11252,427.56181 227.11252,427.56181 C227.11252,427.56181 192.55243,388.31732 192.32841,339.71133 C192.10439,291.10534 226.30128,251.544 226.30128,251.544 C226.30128,251.544 260.86137,290.78845 261.08539,339.39444 Z" id="Path" fill="#3F3D56"></path>
            <rect id="Rectangle" fill="#3F3D56" x="180.60974" y="322.47213" width="4.56231" height="180.21124"></rect>
            <path d="M227.27699,303.438 C227.56742,366.45338 183.23277,417.74286 183.23277,417.74286 C183.23277,417.74286 138.42723,366.86422 138.13677,303.84886 C137.84631,240.8335 182.18103,189.544 182.18103,189.544 C182.18103,189.544 226.98656,240.42259 227.27699,303.438 Z" id="Path" fill="#3F3D56"></path>
            <rect id="Rectangle" fill="#3884FF" x="712.08928" y="363.68007" width="3.51907" height="139.0033"></rect>
            <path d="M748.08539,381.39444 C748.30939,430.00044 714.11252,469.56181 714.11252,469.56181 C714.11252,469.56181 679.55243,430.31732 679.32841,381.71133 C679.10439,333.10534 713.30128,293.544 713.30128,293.544 C713.30128,293.544 747.86137,332.78845 748.08539,381.39444 Z" id="Path" fill="#3F3D56"></path>
            <rect id="Rectangle" fill="#3F3D56" x="141.08928" y="363.68007" width="3.51907" height="139.0033"></rect>
            <path d="M177.08539,339.39444 C177.30939,388.00044 143.11252,427.56181 143.11252,427.56181 C143.11252,427.56181 108.55243,388.31732 108.32841,339.71133 C108.10439,291.10534 142.30128,251.544 142.30128,251.544 C142.30128,251.544 176.86137,290.78845 177.08539,339.39444 Z" id="Path" fill="#3F3D56"></path>
            <rect id="Rectangle" fill="#3F3D56" x="451.08928" y="363.68007" width="3.51907" height="139.0033"></rect>
            <path d="M487.08539,339.39444 C487.30939,388.00044 453.11252,427.56181 453.11252,427.56181 C453.11252,427.56181 418.55243,388.31732 418.32841,339.71133 C418.10439,291.10534 452.30128,251.544 452.30128,251.544 C452.30128,251.544 486.86137,290.78845 487.08539,339.39444 Z" id="Path" fill="#3F3D56"></path>
            <rect id="Rectangle" fill="#3F3D56" x="406.60974" y="322.47213" width="4.56231" height="180.21124"></rect>
            <path d="M453.27699,303.438 C453.56742,366.45338 409.23277,417.74286 409.23277,417.74286 C409.23277,417.74286 364.42723,366.86422 364.13677,303.84886 C363.84631,240.8335 408.18103,189.544 408.18103,189.544 C408.18103,189.544 452.98656,240.42259 453.27699,303.438 Z" id="Path" fill="#3F3D56"></path>
            <rect id="Rectangle" fill="#3F3D56" x="367.08928" y="363.68007" width="3.51907" height="139.0033"></rect>
            <path d="M403.08539,339.39444 C403.30939,388.00044 369.11252,427.56181 369.11252,427.56181 C369.11252,427.56181 334.55243,388.31732 334.32841,339.71133 C334.10439,291.10534 368.30128,251.544 368.30128,251.544 C368.30128,251.544 402.86137,290.78845 403.08539,339.39444 Z" id="Path" fill="#3F3D56"></path>
            <path d="M738.36202,428.41334 L679.55843,374.34479 C679.39962,376.77454 679.31697,379.23035 679.32833,381.71131 C679.55245,430.31739 714.11251,469.56177 714.11251,469.56177 C724.174499,457.112256 732.345567,443.246961 738.36202,428.41334 Z" id="Path" fill="#3884FF"></path>
            <path d="M300.64374,490.2839 C302.65849,497.73163 309.55946,502.3442 309.55946,502.3442 C309.55946,502.3442 313.19388,494.88161 311.17913,487.43388 C309.16438,479.98615 302.26341,475.37359 302.26341,475.37359 C302.26341,475.37359 298.62899,482.83617 300.64374,490.2839 Z" id="Path" fill="#3F3D56"></path>
            <path d="M303.60427,488.68331 C309.13277,494.06508 309.80804,502.33812 309.80804,502.33812 C309.80804,502.33812 301.51983,501.88558 295.99133,496.50381 C290.46283,491.12204 289.78756,482.84899 289.78756,482.84899 C289.78756,482.84899 298.07577,483.30153 303.60427,488.68331 Z" id="Path" fill="#3F3D56"></path>
            <path d="M584.64374,490.2839 C586.65849,497.73163 593.55946,502.3442 593.55946,502.3442 C593.55946,502.3442 597.19388,494.88161 595.17913,487.43388 C593.16438,479.98615 586.26341,475.37359 586.26341,475.37359 C586.26341,475.37359 582.62899,482.83617 584.64374,490.2839 Z" id="Path" fill="#3884FF"></path>
            <path d="M587.60427,488.68331 C593.13277,494.06508 593.80804,502.33812 593.80804,502.33812 C593.80804,502.33812 585.51983,501.88558 579.99133,496.50381 C574.46283,491.12204 573.78756,482.84899 573.78756,482.84899 C573.78756,482.84899 582.07577,483.30153 587.60427,488.68331 Z" id="Path" fill="#3884FF"></path>
            <path d="M76.64374,490.2839 C78.65849,497.73163 85.55946,502.3442 85.55946,502.3442 C85.55946,502.3442 89.19388,494.88161 87.17913,487.43388 C85.16438,479.98615 78.26341,475.37359 78.26341,475.37359 C78.26341,475.37359 74.62899,482.83617 76.64374,490.2839 Z" id="Path" fill="#3F3D56"></path>
            <path d="M79.60427,488.68331 C85.13277,494.06508 85.80804,502.33812 85.80804,502.33812 C85.80804,502.33812 77.51983,501.88558 71.99133,496.50381 C66.46283,491.12204 65.78756,482.84899 65.78756,482.84899 C65.78756,482.84899 74.07577,483.30153 79.60427,488.68331 Z" id="Path" fill="#3F3D56"></path>
            <path d="M387.33278,220.70747 L483.84304,366.36915 C485.998788,357.539612 487.087358,348.483313 487.08541,339.39442 C486.97615,315.69242 478.70211,294.21931 470.25222,278.43442 L465.78756,279.54392 L469.98671,277.94199 C465.011001,268.560315 459.084759,259.714561 452.30129,251.544 C452.30129,251.544 449.83889,254.394 446.24184,259.49865 C433.56227,218.37042 408.18105,189.544 408.18105,189.544 C400.259132,199.247205 393.278262,209.682035 387.33278,220.70747 Z" id="Path" fill="#3884FF"></path>
            <polygon id="Path" fill="#F2F2F2" opacity="0.1" points="574.728 277.957 574.728 277.957 574.727 277.956 552.908 257.894 552.712 257.943 543.975 250 543.553 249.877 544.008 249.704 451.089 164.271 451.089 164.271 361.353 81.762 315.628 106.016 311.888 106.844 366.685 189.544 574.068 502.544 818.988 502.544"></polygon>
            <circle id="Oval" fill="#F2F2F2" cx="334.78756" cy="92.54395" r="27"></circle>
        </g>
    </g>
</svg>