<?xml version="1.0" encoding="UTF-8"?>
<svg width="946px" height="775px" viewBox="0 0 946 775" version="1.1" xmlns="http://www.w3.org/2000/svg" xmlns:xlink="http://www.w3.org/1999/xlink">
    <!-- Generator: Sketch 52.6 (67491) - http://www.bohemiancoding.com/sketch -->
    <title>pan-gesture</title>
    <desc>Created with Sketch.</desc>
    <defs>
        <linearGradient x1="10.855988%" y1="101.734476%" x2="89.144411%" y2="-1.73827221%" id="linearGradient-1">
            <stop stop-color="#808080" stop-opacity="0.25" offset="0%"></stop>
            <stop stop-color="#808080" stop-opacity="0.12" offset="54%"></stop>
            <stop stop-color="#808080" stop-opacity="0.1" offset="100%"></stop>
        </linearGradient>
        <linearGradient x1="50.0025296%" y1="99.9998003%" x2="50.0025296%" y2="-0.00102386172%" id="linearGradient-2">
            <stop stop-color="#808080" stop-opacity="0.25" offset="0%"></stop>
            <stop stop-color="#808080" stop-opacity="0.12" offset="54%"></stop>
            <stop stop-color="#808080" stop-opacity="0.1" offset="100%"></stop>
        </linearGradient>
        <linearGradient x1="89.6357928%" y1="101.590723%" x2="10.8900276%" y2="-1.77537439%" id="linearGradient-3">
            <stop stop-color="#808080" stop-opacity="0.25" offset="0%"></stop>
            <stop stop-color="#808080" stop-opacity="0.12" offset="54%"></stop>
            <stop stop-color="#808080" stop-opacity="0.1" offset="100%"></stop>
        </linearGradient>
        <linearGradient x1="49.9974704%" y1="99.9998003%" x2="49.9974704%" y2="-0.00102386172%" id="linearGradient-4">
            <stop stop-color="#808080" stop-opacity="0.25" offset="0%"></stop>
            <stop stop-color="#808080" stop-opacity="0.12" offset="54%"></stop>
            <stop stop-color="#808080" stop-opacity="0.1" offset="100%"></stop>
        </linearGradient>
        <linearGradient x1="14.0532528%" y1="102.226107%" x2="92.7962505%" y2="-1.13999013%" id="linearGradient-5">
            <stop stop-color="#808080" stop-opacity="0.25" offset="0%"></stop>
            <stop stop-color="#808080" stop-opacity="0.12" offset="54%"></stop>
            <stop stop-color="#808080" stop-opacity="0.1" offset="100%"></stop>
        </linearGradient>
        <linearGradient x1="50%" y1="100%" x2="50%" y2="0%" id="linearGradient-6">
            <stop stop-color="#808080" stop-opacity="0.25" offset="0%"></stop>
            <stop stop-color="#808080" stop-opacity="0.12" offset="54%"></stop>
            <stop stop-color="#808080" stop-opacity="0.1" offset="100%"></stop>
        </linearGradient>
    </defs>
    <g id="Page-1" stroke="none" stroke-width="1" fill="none" fill-rule="evenodd">
        <g id="pan-gesture">
            <g id="Group" opacity="0.5" transform="translate(584.000000, 0.000000)" fill="url(#linearGradient-1)">
                <path d="M346.55,0.01 L14.05,0.82 C10.4271401,0.827947764 6.95582122,2.27475003 4.3996985,4.84212494 C1.84357577,7.40949986 0.412034762,10.8871401 0.42,14.51 L1.88,636.39 C1.89055529,640.021567 3.34676557,643.499453 5.92685008,646.055144 C8.50693459,648.610835 11.9984963,650.033942 15.63,650.01 L348.13,649.2 C351.75286,649.192052 355.224179,647.74525 357.780302,645.177875 C360.336424,642.6105 361.767965,639.13286 361.76,635.51 L360.25,13.62 C360.222432,6.07968706 354.090331,-0.012130521 346.55,0.01 Z" id="Path"></path>
            </g>
            <rect id="Rectangle" fill="#FFFFFF" transform="translate(765.090044, 324.853776) rotate(-0.140000) translate(-765.090044, -324.853776) " x="590.035044" y="8.87877625" width="350.11" height="631.95" rx="13.64"></rect>
            <path d="M852.31,24.52 C850.252846,38.370097 838.40181,48.6500538 824.4,48.73 L703.46,49.01 C689.469654,48.9849458 677.58466,38.768096 675.46,24.94 L611.41,25.1 C607.882618,25.1079475 604.502866,26.5168213 602.014257,29.0166831 C599.525647,31.516545 598.132035,34.902618 598.14,38.43 L599.53,612.1 C599.537939,615.630858 600.94956,619.013649 603.453752,621.502835 C605.957943,623.99202 609.349158,625.383283 612.88,625.37 L918.88,624.63 C922.407382,624.622052 925.787134,623.213179 928.275743,620.713317 C930.764353,618.213455 932.157965,614.827382 932.15,611.3 L930.76,37.63 C930.752052,34.1026179 929.343179,30.7228664 926.843317,28.2342567 C924.343455,25.745647 920.957382,24.3520345 917.43,24.36 L852.31,24.52 Z" id="03400db2-955d-4119-b6c0-e63250e8f2de" fill="#3884FF" opacity="0.3"></path>
            <g id="Group" opacity="0.5" transform="translate(665.000000, 69.000000)" fill="url(#linearGradient-2)">
                <path d="M204.38,102.24 C204.374189,53.6164361 170.047404,11.757032 122.366415,2.22947597 C74.6854268,-7.29808008 26.9082616,18.1554144 8.21717147,63.0429867 C-10.4739186,107.930559 5.11825246,159.770911 45.47,186.9 L45.53,187.35 C48.8621713,190.544101 52.7946887,193.045685 57.1,194.71 L57.23,194.26 C62,198.36 82.11,204.92 105.23,204.86 L105.73,204.86 C120.37,204.86 136.25,202.28 150.22,194.72 C150.22,194.72 150.34,194.45 150.53,193.95 C154.07049,192.285483 157.318968,190.060175 160.15,187.36 C160.203333,186.973333 160.256667,186.586667 160.31,186.2 C187.921221,167.170565 204.401292,135.773543 204.38,102.24 Z" id="Path"></path>
            </g>
            <circle id="Oval" fill="#F5F5F5" cx="767.38" cy="171.25" r="98.94"></circle>
            <rect id="Rectangle" fill="#DBDBDB" transform="translate(761.207090, 34.775806) rotate(-0.860000) translate(-761.207090, -34.775806) " x="722.19709" y="32.3358059" width="78.02" height="4.88" rx="2"></rect>
            <circle id="Oval" fill="#DBDBDB" transform="translate(816.790866, 33.451741) rotate(-0.860000) translate(-816.790866, -33.451741) " cx="816.790866" cy="33.4517406" r="2.93"></circle>
            <rect id="Rectangle" fill="#F5F5F5" x="680.38" y="309.9" width="162" height="18"></rect>
            <rect id="Rectangle" fill="#F5F5F5" x="644.38" y="345.9" width="234" height="18"></rect>
            <g id="Group" opacity="0.5" fill="url(#linearGradient-3)">
                <path d="M15.21,0.01 L347.71,0.82 C351.33286,0.827947764 354.804179,2.27475003 357.360302,4.84212494 C359.916424,7.40949986 361.347965,10.8871401 361.34,14.51 L359.88,636.39 C359.869445,640.021567 358.413234,643.499453 355.83315,646.055144 C353.253065,648.610835 349.761504,650.033942 346.13,650.01 L13.63,649.2 C10.0071401,649.192052 6.53582122,647.74525 3.9796985,645.177875 C1.42357577,642.6105 -0.00796523758,639.13286 0,635.51 L1.51,13.62 C1.53756768,6.07968706 7.66966914,-0.012130521 15.21,0.01 Z" id="Path"></path>
            </g>
            <rect id="Rectangle" fill="#FFFFFF" transform="translate(180.673626, 324.854074) rotate(-179.860000) translate(-180.673626, -324.854074) " x="5.61862645" y="8.87907353" width="350.11" height="631.95" rx="13.64"></rect>
            <path d="M93.45,24.52 C95.5071537,38.370097 107.35819,48.6500538 121.36,48.73 L242.29,49.02 C256.280346,48.9949458 268.16534,38.778096 270.29,24.95 L334.34,25.11 C337.867382,25.1179475 341.247134,26.5268213 343.735743,29.0266831 C346.224353,31.526545 347.617965,34.912618 347.61,38.44 L346.22,612.11 C346.209407,615.637384 344.797992,619.016086 342.296253,621.502822 C339.794515,623.989558 336.407384,625.380625 332.88,625.37 L26.88,624.63 C23.3526179,624.622052 19.9728664,623.213179 17.4842567,620.713317 C14.995647,618.213455 13.6020345,614.827382 13.61,611.3 L15,37.63 C15.0079475,34.1026179 16.4168213,30.7228664 18.9166831,28.2342567 C21.416545,25.745647 24.802618,24.3520345 28.33,24.36 L93.45,24.52 Z" id="630d207c-7e3b-460e-9d0a-7242eec8ea7a" fill="#3884FF" opacity="0.3"></path>
            <g id="Group" opacity="0.5" transform="translate(76.000000, 69.000000)" fill="url(#linearGradient-4)">
                <path d="M0.38,102.24 C0.385810769,53.6164361 34.712596,11.757032 82.3935846,2.22947597 C130.074573,-7.29808008 177.851738,18.1554144 196.542829,63.0429867 C215.233919,107.930559 199.641748,159.770911 159.29,186.9 L159.23,187.35 C155.897829,190.544101 151.965311,193.045685 147.66,194.71 L147.53,194.26 C142.76,198.36 122.65,204.92 99.53,204.86 L99.03,204.86 C84.39,204.86 68.51,202.28 54.54,194.72 C54.54,194.72 54.42,194.45 54.23,193.95 C50.6895096,192.285483 47.441032,190.060175 44.61,187.36 C44.5566667,186.973333 44.5033333,186.586667 44.45,186.2 C16.8387786,167.170565 0.358707644,135.773543 0.38,102.24 Z" id="Path"></path>
            </g>
            <circle id="Oval" fill="#F5F5F5" cx="178.38" cy="171.25" r="98.94"></circle>
            <rect id="Rectangle" fill="#DBDBDB" transform="translate(184.542264, 34.763073) rotate(-179.140000) translate(-184.542264, -34.763073) " x="145.532264" y="32.3230725" width="78.02" height="4.88" rx="2"></rect>
            <circle id="Oval" fill="#DBDBDB" transform="translate(128.962862, 33.436041) rotate(-89.140000) translate(-128.962862, -33.436041) " cx="128.962862" cy="33.436041" r="2.93"></circle>
            <rect id="Rectangle" fill="#F5F5F5" transform="translate(184.380000, 318.900000) rotate(-180.000000) translate(-184.380000, -318.900000) " x="103.38" y="309.9" width="162" height="18"></rect>
            <rect id="Rectangle" fill="#F5F5F5" transform="translate(184.380000, 354.900000) rotate(-180.000000) translate(-184.380000, -354.900000) " x="67.38" y="345.9" width="234" height="18"></rect>
            <g id="Group" opacity="0.5" transform="translate(291.000000, 124.000000)" fill="url(#linearGradient-5)">
                <path d="M346.55,0.01 L14.05,0.82 C10.4271401,0.827947764 6.95582122,2.27475003 4.3996985,4.84212494 C1.84357577,7.40949986 0.412034762,10.8871401 0.42,14.51 L1.88,636.39 C1.89055529,640.021567 3.34676557,643.499453 5.92685008,646.055144 C8.50693459,648.610835 11.9984963,650.033942 15.63,650.01 L348.13,649.2 C351.75286,649.192052 355.224179,647.74525 357.780302,645.177875 C360.336424,642.6105 361.767965,639.13286 361.76,635.51 L360.25,13.62 C360.222432,6.07968706 354.090331,-0.012130521 346.55,0.01 Z" id="Path"></path>
            </g>
            <rect id="Rectangle" fill="#FFFFFF" transform="translate(472.093908, 448.859339) rotate(-0.140000) translate(-472.093908, -448.859339) " x="297.038908" y="132.884339" width="350.11" height="631.95" rx="13.64"></rect>
            <path d="M559.31,148.52 C557.252846,162.370097 545.40181,172.650054 531.4,172.73 L410.46,173.01 C396.469654,172.984946 384.58466,162.768096 382.46,148.94 L318.41,149.1 C314.882618,149.107948 311.502866,150.516821 309.014257,153.016683 C306.525647,155.516545 305.132035,158.902618 305.14,162.43 L306.53,736.1 C306.537939,739.630858 307.94956,743.013649 310.453752,745.502835 C312.957943,747.99202 316.349158,749.383283 319.88,749.37 L625.88,748.63 C629.407382,748.622052 632.787134,747.213179 635.275743,744.713317 C637.764353,742.213455 639.157965,738.827382 639.15,735.3 L637.76,161.63 C637.752052,158.102618 636.343179,154.722866 633.843317,152.234257 C631.343455,149.745647 627.957382,148.352035 624.43,148.36 L559.31,148.52 Z" id="e707708a-3328-453c-98e2-ff60f305110c" fill="#3884FF" opacity="0.4"></path>
            <g id="Group" opacity="0.5" transform="translate(372.000000, 193.000000)" fill="url(#linearGradient-2)">
                <path d="M204.38,102.24 C204.374189,53.6164361 170.047404,11.757032 122.366415,2.22947597 C74.6854268,-7.29808008 26.9082616,18.1554144 8.21717147,63.0429867 C-10.4739186,107.930559 5.11825246,159.770911 45.47,186.9 L45.53,187.35 C48.8621713,190.544101 52.7946887,193.045685 57.1,194.71 L57.23,194.26 C62,198.36 82.11,204.92 105.23,204.86 L105.73,204.86 C120.37,204.86 136.25,202.28 150.22,194.72 C150.22,194.72 150.34,194.45 150.53,193.95 C154.07049,192.285483 157.318968,190.060175 160.15,187.36 C160.203333,186.973333 160.256667,186.586667 160.31,186.2 C187.921221,167.170565 204.401292,135.773543 204.38,102.24 Z" id="Path"></path>
            </g>
            <circle id="Oval" fill="#F5F5F5" cx="474.38" cy="295.25" r="98.94"></circle>
            <rect id="Rectangle" fill="#DBDBDB" transform="translate(468.201244, 158.769553) rotate(-0.860000) translate(-468.201244, -158.769553) " x="429.191244" y="156.329553" width="78.02" height="4.88" rx="2"></rect>
            <circle id="Oval" fill="#DBDBDB" transform="translate(523.785021, 157.445488) rotate(-0.860000) translate(-523.785021, -157.445488) " cx="523.785021" cy="157.445488" r="2.93"></circle>
            <path d="M490.595357,442.132578 L490.595357,486.642578 L253.225357,486.642578 L253.225357,501.372578 C253.22596,502.455143 252.665351,503.46065 251.744145,504.02927 C250.822939,504.59789 249.672817,504.648344 248.705357,504.162578 L179.905357,469.762578 C178.764836,469.191503 178.032458,468.037753 178.001051,466.762634 C177.969644,465.487516 178.644334,464.299109 179.755357,463.672578 L249.755357,424.292578 C250.464889,423.894726 251.332223,423.903141 252.033902,424.314683 C252.735582,424.726226 253.166273,425.479116 253.165357,426.292578 L252.945357,441.822578 L490.595357,442.132578 Z" id="Path" fill="#FF6584"></path>
            <path d="M567,442.132578 L567,486.642578 L804.37,486.642578 L804.37,501.372578 C804.369397,502.455143 804.930006,503.46065 805.851212,504.02927 C806.772418,504.59789 807.92254,504.648344 808.89,504.162578 L877.69,469.762578 C878.830521,469.191503 879.562899,468.037753 879.594306,466.762634 C879.625713,465.487516 878.951023,464.299109 877.84,463.672578 L807.84,424.292578 C807.130468,423.894726 806.263135,423.903141 805.561455,424.314683 C804.859775,424.726226 804.429084,425.479116 804.43,426.292578 L804.65,441.822578 L567,442.132578 Z" id="Path" fill="#FF6584"></path>
            <g id="Group" opacity="0.5" transform="translate(475.000000, 405.098957)" fill="url(#linearGradient-6)">
                <circle id="Oval" cx="54" cy="54" r="54"></circle>
            </g>
            <circle id="Oval" fill="#3884FF" cx="529" cy="460" r="45"></circle>
            <path d="M436.58,335.93 C436.58,335.93 413.01,337.86 419.24,380.81 C422.4714,383.90809 426.284901,386.334864 430.46,387.95 L443.72,343.07 L436.58,335.93 Z" id="Path" fill="#FDA57D"></path>
            <path d="M513.08,335.93 C513.08,335.93 536.65,337.86 530.42,380.81 C527.1886,383.90809 523.375099,386.334864 519.2,387.95 L505.94,343.07 L513.08,335.93 Z" id="Path" fill="#FDA57D"></path>
            <path d="M437.6,265.55 C437.6,265.55 426.38,298.19 420.26,295.13 C420.26,295.13 479.26,346.13 531.44,295.13 C531.44,295.13 522.26,278.81 509,265.55 L437.6,265.55 Z" id="Path" fill="#333333"></path>
            <circle id="Oval" fill="#333333" cx="475.46" cy="262.49" r="43.86"></circle>
            <path d="M512.63,335.93 L436.13,335.93 L428.99,366.53 C428.99,366.53 424.8,380.7 429.99,386.93 C435.18,393.16 483.94,407.33 519.75,387.93 C522.865161,379.768521 523.216461,370.810366 520.75,362.43 C516.67,348.15 519.75,361.43 519.75,361.43 L512.63,335.93 Z" id="Path" fill="#000000" opacity="0.1"></path>
            <path d="M513.65,335.93 L437.15,335.93 L430.01,366.53 C430.01,366.53 425.82,380.7 431.01,386.93 C436.2,393.16 484.96,407.33 520.77,387.93 C523.885161,379.768521 524.236461,370.810366 521.77,362.43 C517.69,348.15 520.77,361.43 520.77,361.43 L513.65,335.93 Z" id="Path" fill="#000000" opacity="0.1"></path>
            <path d="M513.08,335.93 L436.58,335.93 L429.44,366.53 C429.44,366.53 425.25,380.7 430.44,386.93 C435.63,393.16 484.39,407.33 520.2,387.93 C523.315161,379.768521 523.666461,370.810366 521.2,362.43 C517.12,348.15 520.2,361.43 520.2,361.43 L513.08,335.93 Z" id="Path" fill="#3884FF"></path>
            <path d="M460,310.55 L490.6,310.55 L490.6,335 C490.6,343.449957 483.749957,350.3 475.3,350.3 C466.850043,350.3 460,343.449957 460,335 L460,310.55 Z" id="Path" fill="#000000" opacity="0.1"></path>
            <path d="M460,309.41 L490.6,309.41 L490.6,333.89 C490.6,342.339957 483.749957,349.19 475.3,349.19 C466.850043,349.19 460,342.339957 460,333.89 L460,309.41 Z" id="Path" fill="#FDA57D"></path>
            <path d="M460.1,313.83 C469.961914,317.516872 480.818943,317.545256 490.7,313.91 L490.7,310.15 L460.1,310.15 L460.1,313.83 Z" id="Path" fill="#000000" opacity="0.1"></path>
            <circle id="Oval" fill="#FDA57D" cx="475.46" cy="272.01" r="43.86"></circle>
            <path d="M433.52,255.35 L517.16,255.35 C517.16,255.35 510.02,221.58 478.4,223.73 C446.78,225.88 433.52,255.35 433.52,255.35 Z" id="Path" fill="#333333"></path>
            <ellipse id="Oval" fill="#FDA57D" cx="432.5" cy="270.14" rx="4.08" ry="7.65"></ellipse>
            <ellipse id="Oval" fill="#FDA57D" cx="518.18" cy="270.14" rx="4.08" ry="7.65"></ellipse>
            <path d="M433.52,256.49 L517.16,256.49 C517.16,256.49 510.02,222.72 478.4,224.87 C446.78,227.02 433.52,256.49 433.52,256.49 Z" id="Path" fill="#000000" opacity="0.1"></path>
            <path d="M724.58,209.93 C724.58,209.93 701.01,211.86 707.24,254.81 C710.4714,257.90809 714.284901,260.334864 718.46,261.95 L731.72,217.07 L724.58,209.93 Z" id="Path" fill="#4D8AF0"></path>
            <path d="M801.08,209.93 C801.08,209.93 824.65,211.86 818.42,254.81 C815.1886,257.90809 811.375099,260.334864 807.2,261.95 L793.94,217.07 L801.08,209.93 Z" id="Path" fill="#4D8AF0"></path>
            <circle id="Oval" fill="#333333" cx="763.46" cy="136.49" r="43.86"></circle>
            <path d="M800.63,209.93 L724.13,209.93 L716.99,240.53 C716.99,240.53 712.8,254.7 717.99,260.93 C723.18,267.16 771.94,281.33 807.75,261.93 C810.865161,253.768521 811.216461,244.810366 808.75,236.43 C804.67,222.15 807.75,235.43 807.75,235.43 L800.63,209.93 Z" id="Path" fill="#4D8AF0"></path>
            <path d="M801.65,209.93 L725.15,209.93 L718.01,240.53 C718.01,240.53 713.82,254.7 719.01,260.93 C724.2,267.16 772.96,281.33 808.77,261.93 C811.885161,253.768521 812.236461,244.810366 809.77,236.43 C805.69,222.15 808.77,235.43 808.77,235.43 L801.65,209.93 Z" id="Path" fill="#4D8AF0"></path>
            <path d="M801.08,209.93 L724.58,209.93 L717.44,240.53 C717.44,240.53 713.25,254.7 718.44,260.93 C723.63,267.16 772.39,281.33 808.2,261.93 C811.315161,253.768521 811.666461,244.810366 809.2,236.43 C805.12,222.15 808.2,235.43 808.2,235.43 L801.08,209.93 Z" id="Path" fill="#4D8AF0"></path>
            <path d="M748,184.55 L778.6,184.55 L778.6,209 C778.6,217.449957 771.749957,224.3 763.3,224.3 C754.850043,224.3 748,217.449957 748,209 L748,184.55 Z" id="Path" fill="#000000" opacity="0.1"></path>
            <path d="M748,183.41 L778.6,183.41 L778.6,207.89 C778.6,216.339957 771.749957,223.19 763.3,223.19 C754.850043,223.19 748,216.339957 748,207.89 L748,183.41 Z" id="Path" fill="#FDB797"></path>
            <path d="M748.1,187.83 C757.961914,191.516872 768.818943,191.545256 778.7,187.91 L778.7,184.15 L748.1,184.15 L748.1,187.83 Z" id="Path" fill="#000000" opacity="0.1"></path>
            <circle id="Oval" fill="#FDB797" cx="763.46" cy="146.01" r="43.86"></circle>
            <path d="M721.52,130.49 L805.16,130.49 C805.16,130.49 798.02,96.72 766.4,98.87 C734.78,101.02 721.52,130.49 721.52,130.49 Z" id="Path" fill="#000000" opacity="0.1"></path>
            <path d="M721.52,129.35 L805.16,129.35 C805.16,129.35 798.02,95.58 766.4,97.73 C734.78,99.88 721.52,129.35 721.52,129.35 Z" id="Path" fill="#333333"></path>
            <ellipse id="Oval" fill="#FDB797" cx="720.5" cy="144.14" rx="4.08" ry="7.65"></ellipse>
            <ellipse id="Oval" fill="#FDB797" cx="806.18" cy="144.14" rx="4.08" ry="7.65"></ellipse>
            <path d="M728.02,107.01 C728.91839,103.673846 730.902935,100.732215 733.66,98.65 C735.8,97.17 738.35,96.45 740.81,95.59 C744.440074,94.294656 747.922816,92.6186494 751.2,90.59 C754.92,88.3 758.41,85.54 762.51,84.02 C769.51,81.41 777.4,82.82 784.68,84.69 C786.492952,85.0724486 788.238791,85.7229255 789.86,86.62 C791.626451,87.8416966 793.180434,89.3450066 794.46,91.07 L806,105.01 C807.102524,106.232389 808.065151,107.574029 808.87,109.01 C809.564765,110.443694 810.007885,111.986158 810.18,113.57 C810.594116,116.130748 810.162309,118.756698 808.95,121.05 C806.95,124.38 802.95,126.05 799.11,126.21 C795.27,126.37 791.47,125.21 787.76,124.16 C775.76,120.66 763.7,117.4 751.31,115.94 C745.157398,115.181201 738.948778,114.980383 732.76,115.34 C730.82,115.47 728.25,116.34 727.07,114.34 C726.04,112.7 727.49,108.7 728.02,107.01 Z" id="Path" fill="#333333"></path>
            <path d="M139.58,208.93 C139.58,208.93 116.01,210.86 122.24,253.81 C125.4714,256.90809 129.284901,259.334864 133.46,260.95 L146.72,216.07 L139.58,208.93 Z" id="Path" fill="#BE7C5E"></path>
            <path d="M216.08,208.93 C216.08,208.93 239.65,210.86 233.42,253.81 C230.1886,256.90809 226.375099,259.334864 222.2,260.95 L208.94,216.07 L216.08,208.93 Z" id="Path" fill="#BE7C5E"></path>
            <path d="M140.6,138.55 C140.6,138.55 138.79,143.83 136.22,149.94 C130.61,163.31 137.01,214.65 150.44,220.12 C165.5,226.26 185.32,230.19 205.9,222.69 C223.79,216.17 229.3,157.69 216.66,143.5 C215.18,141.83 213.66,140.17 212.01,138.56 L140.6,138.55 Z" id="Path" fill="#333333"></path>
            <circle id="Oval" fill="#333333" cx="178.46" cy="135.49" r="43.86"></circle>
            <path d="M215.63,208.93 L139.13,208.93 L131.99,239.53 C131.99,239.53 127.8,253.7 132.99,259.93 C138.18,266.16 186.94,280.33 222.75,260.93 C225.865161,252.768521 226.216461,243.810366 223.75,235.43 C219.67,221.15 222.75,234.43 222.75,234.43 L215.63,208.93 Z" id="Path" fill="#000000" opacity="0.1"></path>
            <path d="M216.65,208.93 L140.15,208.93 L133.01,239.53 C133.01,239.53 128.82,253.7 134.01,259.93 C139.2,266.16 187.96,280.33 223.77,260.93 C226.885161,252.768521 227.236461,243.810366 224.77,235.43 C220.69,221.15 223.77,234.43 223.77,234.43 L216.65,208.93 Z" id="Path" fill="#000000" opacity="0.1"></path>
            <path d="M216.08,208.93 L139.58,208.93 L132.44,239.53 C132.44,239.53 128.25,253.7 133.44,259.93 C138.63,266.16 187.39,280.33 223.2,260.93 C226.315161,252.768521 226.666461,243.810366 224.2,235.43 C220.12,221.15 223.2,234.43 223.2,234.43 L216.08,208.93 Z" id="Path" fill="#FF6584"></path>
            <path d="M163,183.55 L193.6,183.55 L193.6,208 C193.6,212.057812 191.98804,215.949427 189.118734,218.818734 C186.249427,221.68804 182.357812,223.3 178.3,223.3 C169.850043,223.3 163,216.449957 163,208 L163,183.55 Z" id="Path" fill="#000000" opacity="0.1"></path>
            <path d="M163,182.41 L193.6,182.41 L193.6,206.89 C193.6,210.947812 191.98804,214.839427 189.118734,217.708734 C186.249427,220.57804 182.357812,222.19 178.3,222.19 C169.850043,222.19 163,215.339957 163,206.89 L163,182.41 Z" id="Path" fill="#BE7C5E"></path>
            <path d="M163.1,186.83 C172.961914,190.516872 183.818943,190.545256 193.7,186.91 L193.7,183.15 L163.1,183.15 L163.1,186.83 Z" id="Path" fill="#000000" opacity="0.1"></path>
            <circle id="Oval" fill="#BE7C5E" cx="178.46" cy="145.01" r="43.86"></circle>
            <path d="M136.52,128.35 L220.16,128.35 C220.16,128.35 213.02,94.58 181.4,96.73 C149.78,98.88 136.52,128.35 136.52,128.35 Z" id="Path" fill="#333333"></path>
            <ellipse id="Oval" fill="#BE7C5E" cx="135.5" cy="143.14" rx="4.08" ry="7.65"></ellipse>
            <ellipse id="Oval" fill="#BE7C5E" cx="221.18" cy="143.14" rx="4.08" ry="7.65"></ellipse>
            <path d="M136.52,129.49 L220.16,129.49 C220.16,129.49 213.02,95.72 181.4,97.87 C149.78,100.02 136.52,129.49 136.52,129.49 Z" id="Path" fill="#000000" opacity="0.1"></path>
        </g>
    </g>
</svg>