<?xml version="1.0" encoding="UTF-8"?>
<svg width="907px" height="724px" viewBox="0 0 907 724" version="1.1" xmlns="http://www.w3.org/2000/svg" xmlns:xlink="http://www.w3.org/1999/xlink">
    <!-- Generator: Sketch 52.6 (67491) - http://www.bohemiancoding.com/sketch -->
    <title>spring</title>
    <desc>Created with Sketch.</desc>
    <g id="Page-1" stroke="none" stroke-width="1" fill="none" fill-rule="evenodd">
        <g id="spring">
            <path d="M444.90477,452.73366 C618.50886,794.802 462.12537,834.75756 73.64239,443.72839 C-28.57354,340.84252 -22.36036,172.50055 82.64766,72.46601 C187.65568,-27.56853 353.8755,-23.53673 453.91004,81.47128 C553.94458,186.47929 379.2694,323.40619 444.90477,452.73366 Z" id="Path" fill="#F2F2F2"></path>
            <rect id="Rectangle" fill="#D0CDE1" x="110.9759" y="103.41694" width="112" height="99.20101"></rect>
            <rect id="Rectangle" fill="#3F3D56" x="53.5" y="201.03179" width="227" height="15"></rect>
            <rect id="Rectangle" fill="#3F3D56" x="598.5" y="538.03179" width="227" height="15"></rect>
            <rect id="Rectangle" fill="#3F3D56" x="53.5" y="322.03179" width="772" height="15"></rect>
            <circle id="Oval" fill="#3884FF" cx="496.5" cy="397.03179" r="69"></circle>
            <path d="M487.49999,110.53524 C487.49999,147.27304 471.68264,148.41449 445.91516,148.41449 C420.14768,148.41449 394.18768,147.27304 394.18768,110.53524 C394.18768,73.79744 415.07635,44.01557 440.84384,44.01557 C466.61133,44.01557 487.49999,73.79744 487.49999,110.53524 Z" id="Path" fill="#2F2E41"></path>
            <path d="M423.49999,112.03179 C423.49999,112.03179 434.49999,158.03179 430.49999,163.03179 C426.49999,168.03179 464.49999,179.03179 464.49999,179.03179 L480.49999,135.03179 L471.49999,134.03179 C471.49999,134.03179 458.49999,131.03179 462.49999,106.03179 C466.49999,81.03179 423.49999,112.03179 423.49999,112.03179 Z" id="Path" fill="#FFB9B9"></path>
            <path d="M423.49999,112.03179 C423.49999,112.03179 434.49999,158.03179 430.49999,163.03179 C426.49999,168.03179 464.49999,179.03179 464.49999,179.03179 L480.49999,135.03179 L471.49999,134.03179 C471.49999,134.03179 458.49999,131.03179 462.49999,106.03179 C466.49999,81.03179 423.49999,112.03179 423.49999,112.03179 Z" id="Path" fill="#000000" opacity="0.1"></path>
            <circle id="Oval" fill="#FFB9B9" cx="441" cy="92.53179" r="32.5"></circle>
            <path d="M408.99999,275.53179 L385.99999,295.53179 C385.99999,295.53179 315.99999,321.53179 331.99999,361.53179 C347.99999,401.53179 377.99999,460.53179 377.99999,460.53179 L385.99999,479.53179 L405.99999,479.53179 L418.99999,473.53179 L415.99999,465.53179 C415.99999,465.53179 408.99999,454.53179 408.99999,448.53179 C408.99999,442.53179 396.99999,373.53179 388.99999,368.53179 C388.99999,368.53179 428.99999,329.53179 457.99999,327.53179 C486.99999,325.53179 494.99999,318.53179 510.99999,327.53179 C526.99999,336.53179 589.99999,353.53179 589.99999,353.53179 C589.99999,353.53179 623.99999,415.53179 640.99999,426.53179 C657.99999,437.53179 671.99999,474.53179 671.99999,474.53179 L699.99999,469.53179 L685.99999,440.53179 C685.99999,440.53179 671.99999,419.53179 671.99999,410.53179 C671.99999,401.53179 625.99999,314.53179 592.99999,300.53179 C559.99999,286.53179 544.00399,273.65966 544.00399,273.65966 L470.99999,278.53177 L408.99999,275.53179 Z" id="Path" fill="#2F2E41"></path>
            <path d="M385.99999,465.53179 C385.99999,465.53179 378.99999,460.53179 373.99999,470.53179 C368.99999,480.53179 354.99999,503.53179 354.99999,503.53179 C354.99999,503.53179 313.99999,534.53179 344.99999,542.53179 C344.99999,542.53179 359.99999,543.53179 385.99999,525.53179 C411.99999,507.53179 430.99999,498.53179 431.99999,495.53179 C432.99999,492.53179 425.99999,458.53179 418.99999,458.53179 C411.99999,458.53179 413.99999,474.53179 405.99999,474.53179 C400.283503,474.668975 394.592234,475.338536 388.99999,476.53179 L385.99999,465.53179 Z" id="Path" fill="#2F2E41"></path>
            <path d="M709.13319,475.20021 C707.314054,470.035575 703.503925,465.813613 698.552431,463.47579 C693.600937,461.137967 687.919843,460.878695 682.77599,462.75579 C681.23999,463.33179 680.19999,463.93179 679.99999,464.53179 C678.99999,467.53179 669.95022,469.01363 668.97511,467.27271 C668,465.53179 660.99999,460.53179 665.99999,479.53179 C670.99999,498.53179 685.99999,539.53179 693.99999,546.53179 C701.99999,553.53179 729.99999,552.53179 731.99999,545.53179 C733.99999,538.53179 730.99999,525.53179 726.99999,520.53179 C722.99999,515.53179 715.99999,499.53179 714.99999,493.53179 C714.52942,490.70829 711.84434,482.79144 709.13319,475.20021 Z" id="Path" fill="#2F2E41"></path>
            <path d="M529.75824,334.03838 C529.75824,334.03838 537.62632,367.9507 553.07278,359.98238 C568.51924,352.01406 536.13741,320.27521 536.13741,320.27521 L529.75824,334.03838 Z" id="Path" fill="#FFB9B9"></path>
            <path d="M443.75824,315.03838 C443.75824,315.03838 451.62632,348.9507 467.07278,340.98238 C482.51924,333.01406 450.13741,301.27521 450.13741,301.27521 L443.75824,315.03838 Z" id="Path" fill="#FFB9B9"></path>
            <path d="M420.99999,263.53179 C420.99999,263.53179 414.99999,287.53179 422.99999,293.53179 C430.99999,299.53179 443.99999,298.53179 465.99999,306.53179 C487.99999,314.53179 522.99999,306.53179 523.99999,295.53179 C524.99999,284.53179 518.99999,240.53179 518.99999,240.53179 L420.99999,263.53179 Z" id="Path" fill="#575A89"></path>
            <path d="M519.99999,259.53179 C508.42999,263.09179 500.81999,263.48179 497.16999,267.06179 C496.715791,267.497066 496.322257,267.991507 495.99999,268.53179 C492.99999,273.53179 479.99999,275.53179 462.99999,271.53179 C457.304476,270.037099 451.382539,269.603208 445.52999,270.25179 C439.71999,270.84179 433.86999,272.07179 422.99999,271.53179 C404.02999,270.58179 394.95999,208.47179 390.65999,191.83179 C390.42999,190.92179 390.21004,190.15179 389.99999,189.53179 C385.99999,177.53179 406.99999,165.53179 409.99999,162.53179 C412.99999,159.53179 421.99999,147.53179 430.27999,146.28179 C438.54999,145.03179 450.99999,162.53179 450.99999,162.53179 C450.99999,162.53179 470.49999,139.03179 468.49999,133.03179 C466.49999,127.03179 487.49999,131.03179 491.49999,130.03179 C493.75999,129.46179 503.19999,131.93179 510.98999,134.19179 C517.647632,136.115087 522.416216,141.963275 522.95999,148.87179 C523.08999,150.50179 523.22999,152.27179 523.36999,154.17179 C525.84999,186.83178 529.92999,256.4818 519.99999,259.53179 Z" id="Path" fill="#D0CDE1"></path>
            <path d="M445.52999,270.25176 C439.71999,270.84176 433.86999,272.07176 422.99999,271.53176 C404.02999,270.58176 394.95999,208.47176 390.65999,191.83176 C391.37999,186.65176 391.99999,183.53176 391.99999,183.53176 L397.49999,191.03176 C397.49999,191.03176 423.99999,234.53176 430.99999,246.53176 C433.85999,251.43176 439.72999,260.68176 445.52999,270.25176 Z" id="Path" fill="#000000" opacity="0.1"></path>
            <path d="M397.99999,179.53179 L388.99999,183.53179 C388.99999,183.53179 376.99999,243.53179 397.99999,273.53179 C418.99999,303.53179 426.99999,308.53179 430.99999,313.53179 C433.430683,316.486488 437.20211,317.995059 440.99999,317.53179 C440.99999,317.53179 436.99999,327.53179 443.99999,327.53179 C450.99999,327.53179 476.99999,317.53179 469.99999,314.53179 C462.99999,311.53179 455.99999,306.53179 457.99999,301.53179 C459.99999,296.53179 434.99999,258.53179 427.99999,246.53179 C420.99999,234.53179 397.99999,179.53179 397.99999,179.53179 Z" id="Path" fill="#D0CDE1"></path>
            <path d="M519.99999,259.53179 C508.42999,263.09179 500.81999,263.48179 497.16999,267.06179 C496.24999,257.18179 496.28999,247.87179 497.99999,240.53179 C504.14627,214.19062 508.78468,157.15141 508.49999,143.03179 C508.46621,141.35627 508.82413,144.03179 510.49999,144.03179 L510.49999,145.03179 C517.89999,145.03179 519.97999,142.40179 522.05999,149.50179 C522.47999,150.92184 522.91999,152.48179 523.36999,154.17184 C525.84999,186.83178 529.92999,256.4818 519.99999,259.53179 Z" id="Path" fill="#000000" opacity="0.1"></path>
            <path d="M506.99999,137.53179 L510.06449,137.53179 C517.462174,137.528486 523.976136,142.403448 526.05899,149.50186 C529.879585,162.981788 532.865581,176.684418 534.99999,190.53179 C540.99999,227.53179 547.99999,319.53179 546.99999,321.53179 C545.99999,323.53179 558.99999,333.53179 552.99999,335.53179 C546.99999,337.53179 535.99999,341.53179 530.99999,342.53179 C525.99999,343.53179 515.99999,333.53179 515.99999,333.53179 C515.99999,333.53179 494.99999,270.53179 501.99999,240.53179 C508.99999,210.53179 506.99999,137.53179 506.99999,137.53179 Z" id="Path" fill="#D0CDE1"></path>
            <path d="M469.02232,69.42239 C469.02232,79.37221 455.37232,87.43813 438.53414,87.43813 C421.69596,87.43813 406.19814,92.76853 406.19814,82.81871 C406.19814,72.86889 421.69599,51.40666 438.53414,51.40666 C455.37229,51.40666 469.02232,59.47257 469.02232,69.42239 Z" id="Path" fill="#2F2E41"></path>
            <path d="M394.46459,116.7704 C394.46459,116.7704 393.22016,150.26226 426.50182,148.41449 C459.78348,146.56672 422.0042,119.78619 422.0042,119.78619 L394.46459,116.7704 Z" id="Path" fill="#2F2E41"></path>
            <rect id="Rectangle" fill="#FF6584" transform="translate(839.975928, 489.017417) rotate(15.262900) translate(-839.975928, -489.017417) " x="783.975928" y="439.416912" width="112" height="99.20101"></rect>
        </g>
    </g>
</svg>