<?xml version="1.0" encoding="UTF-8"?>
<svg width="935px" height="783px" viewBox="0 0 935 783" version="1.1" xmlns="http://www.w3.org/2000/svg" xmlns:xlink="http://www.w3.org/1999/xlink">
    <!-- Generator: Sketch 52.6 (67491) - http://www.bohemiancoding.com/sketch -->
    <title>spring2</title>
    <desc>Created with Sketch.</desc>
    <g id="Page-1" stroke="none" stroke-width="1" fill="none" fill-rule="evenodd">
        <g id="spring2">
            <path d="M621.82416,520.65012 C661.6973,902.17242 814.72546,850.84385 928.74416,311.56418 C958.74434,169.67128 862.14934,31.66026 719.65825,4.64413 C577.16716,-22.372 439.75434,71.23896 412.73825,213.73013 C385.72216,356.2213 606.74912,376.40609 621.82416,520.65012 Z" id="Path" fill="#F2F2F2"></path>
            <path d="M128.19634,640.40386 C128.19634,688.67718 99.49862,705.53242 64.09818,705.53242 C28.69774,705.53242 3e-05,688.67718 3e-05,640.40386 C3e-05,592.13054 64.09818,530.71928 64.09818,530.71928 C64.09818,530.71928 128.19634,592.13055 128.19634,640.40386 Z" id="Path" fill="#F2F2F2"></path>
            <polygon id="Path" fill="#F2F2F2" points="61.763 698.148 62.42 657.748 89.74 607.767 62.522 651.41 62.818 633.244 81.647 597.084 62.896 628.437 62.896 628.437 63.426 595.765 83.589 566.977 63.51 590.628 63.842 530.719 61.757 610.027 61.929 606.756 41.429 575.378 61.6 613.036 59.69 649.525 59.633 648.556 36.001 615.536 59.561 651.978 59.323 656.541 59.28 656.61 59.299 656.984 54.453 749.559 60.928 749.559 61.705 701.743 85.208 665.39"></polygon>
            <path d="M128.19634,640.40386 C128.19634,688.67718 99.49862,705.53242 64.09818,705.53242 C28.69774,705.53242 3e-05,688.67718 3e-05,640.40386 C3e-05,592.13054 64.09818,530.71928 64.09818,530.71928 C64.09818,530.71928 128.19634,592.13055 128.19634,640.40386 Z" id="Path" fill="#F2F2F2"></path>
            <polygon id="Path" fill="#3F3D56" points="61.763 698.148 62.42 657.748 89.74 607.767 62.522 651.41 62.818 633.244 81.647 597.084 62.896 628.437 62.896 628.437 63.426 595.765 83.589 566.977 63.51 590.628 63.842 530.719 61.757 610.027 61.929 606.756 41.429 575.378 61.6 613.036 59.69 649.525 59.633 648.556 36.001 615.536 59.561 651.978 59.323 656.541 59.28 656.61 59.299 656.984 54.453 749.559 60.928 749.559 61.705 701.743 85.208 665.39"></polygon>
            <ellipse id="Oval" fill="#3F3D56" cx="467.1963" cy="751.84673" rx="464" ry="30.5"></ellipse>
            <ellipse id="Oval" fill="#000000" opacity="0.1" cx="216.1963" cy="748.03477" rx="116" ry="20.31196"></ellipse>
            <ellipse id="Oval" fill="#000000" opacity="0.1" cx="702.1963" cy="752.84673" rx="116" ry="17.5"></ellipse>
            <path d="M236.03857,387.8967 L270.37398,389.21729 C270.37398,389.21729 300.74761,403.74381 300.74761,415.62914 C300.74761,427.51447 265.09161,402.42322 265.09161,402.42322 L236.03861,401.10262 L236.03857,387.8967 Z" id="Path" fill="#FFB9B9"></path>
            <path d="M236.03857,387.8967 L270.37398,389.21729 C270.37398,389.21729 300.74761,403.74381 300.74761,415.62914 C300.74761,427.51447 265.09161,402.42322 265.09161,402.42322 L236.03861,401.10262 L236.03857,387.8967 Z" id="Path" fill="#000000" opacity="0.1"></path>
            <path d="M237.35917,377.33196 C237.35917,377.33196 243.96217,393.17907 242.64154,401.10262 C241.32091,409.02617 191.13842,406.38499 191.13842,406.38499 L199.06198,382.61433 L237.35917,377.33196 Z" id="Path" fill="#FFB9B9"></path>
            <polygon id="Path" fill="#FFB9B9" points="189.818 663.901 187.177 699.557 209.627 700.877 213.588 666.542"></polygon>
            <path d="M189.81783,398.46144 L184.53546,411.66736 C184.53546,411.66736 172.65013,423.55269 175.29131,452.60573 C177.93249,481.65877 179.25309,482.97936 179.25309,482.97936 C179.25309,482.97936 168.68834,666.54174 177.9325,667.86236 C187.17666,669.18298 238.67976,694.27422 243.96213,665.22118 C249.2445,636.16814 251.88568,518.63536 251.88568,518.63536 L191.13842,409.02618 L189.81783,398.46144 Z" id="Path" fill="#2F2E41"></path>
            <path d="M189.81783,398.46144 L184.53546,411.66736 C184.53546,411.66736 172.65013,423.55269 175.29131,452.60573 C177.93249,481.65877 179.25309,482.97936 179.25309,482.97936 C179.25309,482.97936 168.68834,666.54174 177.9325,667.86236 C187.17666,669.18298 238.67976,694.27422 243.96213,665.22118 C249.2445,636.16814 251.88568,518.63536 251.88568,518.63536 L191.13842,409.02618 L189.81783,398.46144 Z" id="Path" fill="#000000" opacity="0.1"></path>
            <polygon id="Path" fill="#FFB9B9" points="249.244 642.771 237.359 659.939 257.168 667.862 274.336 640.13"></polygon>
            <circle id="Oval" fill="#FFB9B9" cx="237.35916" cy="245.2727" r="30.37363"></circle>
            <path d="M213.5885,234.70795 C213.5885,234.70795 187.17665,262.4404 179.25309,263.76095 C171.32953,265.0815 206.98553,287.53162 206.98553,287.53162 L206.98553,279.60806 C206.98553,279.60806 218.87087,267.72273 225.47383,266.40214 C232.07679,265.08155 213.5885,234.70795 213.5885,234.70795 Z" id="Path" fill="#FFB9B9"></path>
            <path d="M192.45902,391.85848 L184.53546,411.66736 C184.53546,411.66736 168.68835,451.28513 191.13846,472.41462 C213.58857,493.54411 278.29754,559.57374 275.65634,574.10026 C273.01514,588.62678 233.87102,639.97391 246.17983,646.65486 C258.48864,653.33581 393.18908,629.56515 394.50968,613.71804 C395.0049,607.77537 390.11458,596.26145 383.80823,584.19041 C371.90291,561.56539 357.250943,540.496076 340.18453,521.46017 L250.56509,420.91151 C250.56509,420.91151 241.32094,401.10262 243.96209,397.14085 C243.96209,397.14085 233.39735,386.57611 201.70309,394.49966 L192.45902,391.85848 Z" id="Path" fill="#2F2E41"></path>
            <path d="M185.85605,695.59478 C185.85605,695.59478 179.25305,716.72426 176.6119,718.04485 C173.97075,719.36544 171.32953,733.89196 173.97072,736.53315 C176.61191,739.17434 177.9325,751.05967 177.9325,751.05967 L180.57368,751.05967 L181.89428,737.85374 C181.89428,737.85374 209.25382,754.37174 213.5885,756.34204 C220.85176,759.64352 253.20628,758.98322 251.88568,752.38026 C250.56508,745.7773 212.26791,724.64782 213.5885,719.36545 C214.90909,714.08308 210.94734,698.23596 210.94734,698.23596 L185.85605,695.59478 Z" id="Path" fill="#2F2E41"></path>
            <path d="M261.12983,666.54174 L234.71798,655.977 C234.71798,655.977 228.11498,666.54174 220.19146,666.54174 C212.26794,666.54174 206.10863,676.14636 206.54708,676.62636 C206.98553,677.10636 195.1002,692.95355 195.1002,692.95355 L197.23413,696.79243 L212.26791,687.67118 L216.48127,705.36732 C218.799917,715.360339 223.365236,724.693607 229.83052,732.65832 C235.01144,738.96239 241.46768,744.30997 247.92391,743.13611 C247.92391,743.13611 250.56509,743.13611 247.92391,724.64782 C245.28273,706.15953 250.56509,686.35063 250.56509,686.35063 L261.12983,666.54174 Z" id="Path" fill="#2F2E41"></path>
            <path d="M192.45902,262.44036 C192.45902,262.44036 195.1002,269.04336 197.74139,270.36392 C200.38258,271.68448 208.30613,276.96692 209.62672,282.24925 C210.94731,287.53158 217.55028,303.37873 217.55028,303.37873 C217.55028,303.37873 232.07679,311.30229 230.7562,325.82881 C229.43561,340.35533 228.11502,352.24066 230.7562,353.56125 C233.39738,354.88184 236.03857,354.88184 234.71798,358.84362 C233.39739,362.8054 237.35917,366.76718 238.67976,368.08777 C240.00035,369.40836 242.64154,366.76718 240.00035,370.72895 C237.35916,374.69072 238.67976,376.01132 240.00035,377.33195 C241.32094,378.65258 242.64154,378.65254 241.32094,381.29373 C240.00034,383.93492 191.13842,401.10261 188.49724,401.10261 C185.85606,401.10261 185.85605,398.46143 187.17665,394.49961 C188.49725,390.53779 193.77965,386.57606 188.49724,385.25546 C183.21483,383.93486 181.89424,383.93487 181.89424,377.33191 C181.89424,370.72895 159.44416,331.11117 159.44416,331.11117 C159.44416,331.11117 150.20001,300.73754 159.44416,287.53161 C168.68831,274.32568 175.29134,265.08158 180.57368,262.44036 C185.85602,259.79914 192.45902,262.44036 192.45902,262.44036 Z" id="Path" fill="#3884FF"></path>
            <path d="M148.87946,324.50825 L133.03234,368.08781 L101.33812,461.84988 C101.33812,461.84988 68.32334,508.07063 90.77334,505.42944 C113.22334,502.78825 115.8646,461.84988 115.8646,461.84988 L146.23823,389.21729 L173.97072,333.75236 L148.87946,324.50825 Z" id="Path" fill="#FFB9B9"></path>
            <path d="M164.72657,286.21107 L159.4442,287.53166 C159.4442,287.53166 140.9559,324.50825 144.91768,328.47003 C148.87946,332.43181 170.00894,342.99655 173.97068,341.67596 C177.93242,340.35537 183.21483,302.05818 183.21483,302.05818 L164.72657,286.21107 Z" id="Path" fill="#3884FF"></path>
            <path d="M166.28267,233.74151 C176.52852,229.23651 188.92692,219.37378 200.70019,211.2351 C204.5158,208.59744 208.23151,205.8293 211.92831,203.02755 C219.37931,197.38055 237.31019,195.4219 252.78601,205.34506 C270.47438,216.68692 279.10608,234.78253 274.31731,242.25094 C270.35808,248.42562 257.21572,247.34264 242.78531,240.3746 C240.75639,253.89367 236.11751,267.36651 231.04955,275.27032 C219.58168,293.15521 209.93377,276.29378 192.04888,264.82591 C174.16399,253.35804 146.83394,242.29305 166.28267,233.74151 Z" id="Path" fill="#2F2E41"></path>
            <circle id="Oval" fill="#3884FF" cx="406.1963" cy="476.34673" r="61"></circle>
            <polygon id="Path" fill="#3F3D56" points="702.19634 158.34672 702.19634 271.05504 702.19634 308.34672 702.19634 361.51994 702.19634 415.34672 702.19634 764.34672 760.19634 764.34672 760.19634 158.34672"></polygon>
            <path d="M631.82609,755.27312 L636.61754,757.90548 C636.61754,757.90548 630.22632,761.06397 628.56068,760.48627 C626.89504,759.90857 621.78076,756.26837 621.78076,756.26837 L617.37801,761.01237 L615.84456,756.22516 L631.82609,755.27312 Z" id="Path" fill="#3F3D56"></path>
            <path d="M645.71795,748.8108 C645.71795,748.8108 629.5352,738.65606 643.64569,741.08385 C652.303996,742.546785 661.106424,742.966827 669.86469,742.33499 L671.93695,750.06199 L645.71795,748.8108 Z" id="Path" fill="#3F3D56"></path>
            <path d="M666.14334,764.11287 C666.14334,764.11287 651.12652,760.75506 662.77745,758.85535 C669.953161,757.65879 676.970204,755.653096 683.69433,752.87664 L687.06021,758.13415 L666.14334,764.11287 Z" id="Path" fill="#3F3D56"></path>
        </g>
    </g>
</svg>